<svg width="410" height="481" viewBox="0 0 410 481" fill="none" xmlns="http://www.w3.org/2000/svg">
<rect x="13.5" y="9.5" width="386" height="460" fill="#FF7DAF"/>
<rect x="13.5" y="9.5" width="386" height="460" fill="url(#paint0_radial_882_239)"/>
<rect x="13.5" y="9.5" width="386" height="460" stroke="white" stroke-width="3"/>
<rect x="4" y="1" width="20" height="20" fill="white" stroke="black" stroke-width="2"/>
<rect x="1" y="459" width="20" height="20" fill="white" stroke="black" stroke-width="2"/>
<rect x="389" y="1" width="20" height="20" fill="white" stroke="black" stroke-width="2"/>
<rect x="389" y="460" width="20" height="20" fill="white" stroke="black" stroke-width="2"/>
<path d="M159.812 241.52H134.612V233.04L158.932 196.88H170.292V231.76H177.092V241.52H170.292V251.6H159.812V241.52ZM159.812 231.76V212.48H159.172L146.212 231.76H159.812ZM207.97 252.88C203.383 252.88 199.356 251.653 195.89 249.2C192.423 246.693 189.73 243.28 187.81 238.96C185.943 234.586 185.01 229.68 185.01 224.24C185.01 218.8 185.943 213.92 187.81 209.6C189.73 205.226 192.423 201.813 195.89 199.36C199.356 196.853 203.383 195.6 207.97 195.6C212.556 195.6 216.583 196.853 220.05 199.36C223.516 201.813 226.183 205.226 228.05 209.6C229.97 213.92 230.93 218.8 230.93 224.24C230.93 229.68 229.97 234.586 228.05 238.96C226.183 243.28 223.516 246.693 220.05 249.2C216.583 251.653 212.556 252.88 207.97 252.88ZM207.97 243.04C210.53 243.04 212.743 242.24 214.61 240.64C216.53 238.986 217.97 236.746 218.93 233.92C219.943 231.04 220.45 227.813 220.45 224.24C220.45 218.693 219.33 214.186 217.09 210.72C214.85 207.2 211.81 205.44 207.97 205.44C204.183 205.44 201.17 207.2 198.93 210.72C196.69 214.24 195.57 218.746 195.57 224.24C195.57 227.813 196.05 231.04 197.01 233.92C198.023 236.746 199.463 238.986 201.33 240.64C203.25 242.24 205.463 243.04 207.97 243.04ZM276.594 234.56H262.914V248.16H253.634V234.56H240.034V225.28H253.634V211.68H262.914V225.28H276.594V234.56Z" fill="white"/>
<rect x="149.783" y="266.6" width="113" height="38" rx="19" fill="white"/>
<path d="M177.646 290.856C176.75 290.856 175.929 290.584 175.182 290.04C174.435 289.496 173.923 288.733 173.646 287.752L174.942 287.224C175.123 287.906 175.459 288.466 175.95 288.904C176.441 289.341 177.017 289.56 177.678 289.56C178.339 289.56 178.899 289.384 179.358 289.032C179.817 288.669 180.046 288.178 180.046 287.56C180.046 287.026 179.849 286.589 179.454 286.248C179.07 285.896 178.435 285.57 177.55 285.272L176.83 285.016C176.019 284.728 175.358 284.349 174.846 283.88C174.334 283.41 174.078 282.76 174.078 281.928C174.078 281.384 174.227 280.882 174.526 280.424C174.825 279.954 175.241 279.581 175.774 279.304C176.307 279.026 176.905 278.888 177.566 278.888C178.227 278.888 178.803 279.01 179.294 279.256C179.785 279.501 180.174 279.8 180.462 280.152C180.761 280.504 180.969 280.85 181.086 281.192L179.806 281.736C179.699 281.341 179.454 280.984 179.07 280.664C178.697 280.344 178.201 280.184 177.582 280.184C176.995 280.184 176.494 280.349 176.078 280.68C175.662 281.01 175.454 281.426 175.454 281.928C175.454 282.376 175.63 282.744 175.982 283.032C176.334 283.309 176.867 283.57 177.582 283.816L178.334 284.072C179.305 284.424 180.062 284.866 180.606 285.4C181.15 285.922 181.422 286.637 181.422 287.544C181.422 288.28 181.23 288.898 180.846 289.4C180.473 289.901 179.998 290.269 179.422 290.504C178.846 290.738 178.254 290.856 177.646 290.856ZM183.079 282.44H184.375V283.656H184.439C184.684 283.24 185.052 282.893 185.543 282.616C186.044 282.328 186.604 282.184 187.223 282.184C187.948 282.184 188.609 282.37 189.207 282.744C189.804 283.117 190.273 283.634 190.615 284.296C190.956 284.957 191.127 285.698 191.127 286.52C191.127 287.352 190.956 288.098 190.615 288.76C190.273 289.41 189.804 289.922 189.207 290.296C188.609 290.669 187.948 290.856 187.223 290.856C186.604 290.856 186.044 290.717 185.543 290.44C185.052 290.152 184.684 289.805 184.439 289.4H184.375L184.439 290.52V294.056H183.079V282.44ZM187.063 289.624C187.532 289.624 187.975 289.496 188.391 289.24C188.807 288.984 189.137 288.621 189.383 288.152C189.639 287.672 189.767 287.128 189.767 286.52C189.767 285.912 189.639 285.373 189.383 284.904C189.137 284.424 188.807 284.056 188.391 283.8C187.975 283.544 187.532 283.416 187.063 283.416C186.593 283.416 186.151 283.544 185.735 283.8C185.319 284.056 184.988 284.418 184.743 284.888C184.497 285.357 184.375 285.901 184.375 286.52C184.375 287.138 184.497 287.682 184.743 288.152C184.988 288.621 185.319 288.984 185.735 289.24C186.151 289.496 186.593 289.624 187.063 289.624ZM196.337 290.856C195.559 290.856 194.86 290.669 194.241 290.296C193.623 289.922 193.137 289.41 192.785 288.76C192.444 288.098 192.273 287.357 192.273 286.536C192.273 285.746 192.433 285.021 192.753 284.36C193.084 283.698 193.548 283.17 194.145 282.776C194.743 282.381 195.436 282.184 196.225 282.184C197.025 282.184 197.719 282.365 198.305 282.728C198.892 283.08 199.34 283.57 199.649 284.2C199.969 284.829 200.129 285.549 200.129 286.36C200.129 286.52 200.113 286.658 200.081 286.776H193.633C193.665 287.394 193.815 287.917 194.081 288.344C194.348 288.77 194.684 289.09 195.089 289.304C195.505 289.517 195.937 289.624 196.385 289.624C197.431 289.624 198.236 289.133 198.801 288.152L199.953 288.712C199.601 289.373 199.121 289.896 198.513 290.28C197.916 290.664 197.191 290.856 196.337 290.856ZM198.689 285.656C198.668 285.314 198.572 284.973 198.401 284.632C198.231 284.29 197.959 284.002 197.585 283.768C197.223 283.533 196.764 283.416 196.209 283.416C195.569 283.416 195.025 283.624 194.577 284.04C194.14 284.445 193.852 284.984 193.713 285.656H198.689ZM204.407 290.856C203.81 290.856 203.276 290.738 202.807 290.504C202.338 290.269 201.975 289.949 201.719 289.544C201.463 289.128 201.335 288.658 201.335 288.136C201.335 287.272 201.66 286.6 202.311 286.12C202.962 285.629 203.783 285.384 204.775 285.384C205.266 285.384 205.719 285.437 206.135 285.544C206.562 285.65 206.887 285.773 207.111 285.912V285.416C207.111 284.808 206.898 284.322 206.471 283.96C206.044 283.586 205.506 283.4 204.855 283.4C204.396 283.4 203.975 283.501 203.591 283.704C203.207 283.896 202.903 284.168 202.679 284.52L201.655 283.752C201.975 283.261 202.412 282.877 202.967 282.6C203.532 282.322 204.156 282.184 204.839 282.184C205.948 282.184 206.818 282.477 207.447 283.064C208.087 283.64 208.407 284.429 208.407 285.432V290.6H207.111V289.432H207.047C206.812 289.826 206.46 290.162 205.991 290.44C205.522 290.717 204.994 290.856 204.407 290.856ZM204.535 289.656C204.994 289.656 205.42 289.538 205.815 289.304C206.21 289.069 206.524 288.754 206.759 288.36C206.994 287.965 207.111 287.533 207.111 287.064C206.855 286.893 206.54 286.754 206.167 286.648C205.794 286.541 205.399 286.488 204.983 286.488C204.236 286.488 203.671 286.642 203.287 286.952C202.914 287.261 202.727 287.661 202.727 288.152C202.727 288.6 202.898 288.962 203.239 289.24C203.58 289.517 204.012 289.656 204.535 289.656ZM210.299 279.144H211.659V286.344L215.499 282.44H217.227V282.504L214.027 285.736L217.307 290.536V290.6H215.691L213.067 286.68L211.659 288.088V290.6H210.299V279.144ZM221.775 290.856C220.996 290.856 220.297 290.669 219.679 290.296C219.06 289.922 218.575 289.41 218.223 288.76C217.881 288.098 217.711 287.357 217.711 286.536C217.711 285.746 217.871 285.021 218.191 284.36C218.521 283.698 218.985 283.17 219.583 282.776C220.18 282.381 220.873 282.184 221.663 282.184C222.463 282.184 223.156 282.365 223.743 282.728C224.329 283.08 224.777 283.57 225.087 284.2C225.407 284.829 225.567 285.549 225.567 286.36C225.567 286.52 225.551 286.658 225.519 286.776H219.071C219.103 287.394 219.252 287.917 219.519 288.344C219.785 288.77 220.121 289.09 220.527 289.304C220.943 289.517 221.375 289.624 221.823 289.624C222.868 289.624 223.673 289.133 224.239 288.152L225.391 288.712C225.039 289.373 224.559 289.896 223.951 290.28C223.353 290.664 222.628 290.856 221.775 290.856ZM224.127 285.656C224.105 285.314 224.009 284.973 223.839 284.632C223.668 284.29 223.396 284.002 223.023 283.768C222.66 283.533 222.201 283.416 221.647 283.416C221.007 283.416 220.463 283.624 220.015 284.04C219.577 284.445 219.289 284.984 219.151 285.656H224.127ZM227.158 282.44H228.454V283.752H228.518C228.678 283.304 228.988 282.936 229.446 282.648C229.905 282.349 230.385 282.2 230.886 282.2C231.26 282.2 231.58 282.253 231.846 282.36V283.832C231.505 283.661 231.121 283.576 230.694 283.576C230.3 283.576 229.937 283.688 229.606 283.912C229.276 284.136 229.009 284.44 228.806 284.824C228.614 285.197 228.518 285.602 228.518 286.04V290.6H227.158V282.44ZM235.694 290.856C234.819 290.856 234.089 290.653 233.502 290.248C232.915 289.832 232.499 289.304 232.254 288.664L233.47 288.12C233.673 288.61 233.971 288.989 234.366 289.256C234.771 289.522 235.214 289.656 235.694 289.656C236.206 289.656 236.643 289.554 237.006 289.352C237.369 289.138 237.55 288.84 237.55 288.456C237.55 288.114 237.406 287.842 237.118 287.64C236.83 287.426 236.377 287.245 235.758 287.096L234.766 286.84C234.115 286.68 233.582 286.408 233.166 286.024C232.75 285.64 232.542 285.144 232.542 284.536C232.542 284.066 232.681 283.656 232.958 283.304C233.246 282.941 233.625 282.664 234.094 282.472C234.563 282.28 235.07 282.184 235.614 282.184C236.329 282.184 236.963 282.338 237.518 282.648C238.083 282.957 238.483 283.389 238.718 283.944L237.534 284.488C237.171 283.762 236.526 283.4 235.598 283.4C235.15 283.4 234.755 283.506 234.414 283.72C234.083 283.922 233.918 284.184 233.918 284.504C233.918 284.802 234.035 285.048 234.27 285.24C234.505 285.421 234.857 285.57 235.326 285.688L236.51 285.992C237.31 286.194 237.913 286.498 238.318 286.904C238.723 287.298 238.926 287.784 238.926 288.36C238.926 288.861 238.782 289.304 238.494 289.688C238.206 290.061 237.817 290.349 237.326 290.552C236.835 290.754 236.291 290.856 235.694 290.856Z" fill="#1E1E1E"/>
<defs>
<radialGradient id="paint0_radial_882_239" cx="0" cy="0" r="1" gradientUnits="userSpaceOnUse" gradientTransform="translate(206.5 89.028) scale(329.291 392.909)">
<stop offset="0.52" stop-color="#FC413D"/>
<stop offset="0.76" stop-color="#FD526F"/>
<stop offset="1" stop-color="#FF63A0"/>
</radialGradient>
</defs>
</svg>
