<svg width="186" height="54" viewBox="0 0 186 54" fill="none" xmlns="http://www.w3.org/2000/svg">
<g clip-path="url(#clip0_634_1238)">
<path d="M1.33144 31.4732H3.5047C4.27807 31.4732 4.9046 32.0997 4.9046 32.8731V45.756C4.9046 49.6326 8.03723 52.7653 11.9139 52.7653H17.5134C17.8267 52.7653 18.0714 52.5205 18.0714 52.2073V44.3463C18.0714 44.0331 17.8267 43.7883 17.5134 43.7883H13.2159C12.4425 43.7883 11.816 43.1618 11.816 42.3786V11.2383C11.816 10.4649 12.4425 9.83842 13.2159 9.83842H17.5134C17.8267 9.83842 18.0714 9.5839 18.0714 9.28042V1.41947C18.0714 1.10621 17.8267 0.851685 17.5134 0.851685H11.9139C8.03723 0.851685 4.9046 3.99411 4.9046 7.86095V20.7439C4.9046 21.5173 4.27807 22.1438 3.5047 22.1438H1.33144C1.01817 22.1438 0.773438 22.3885 0.773438 22.7018V30.9152C0.773438 31.2186 1.01817 31.4732 1.33144 31.4732Z" fill="#F9AB00" stroke="#1E1E1E" stroke-width="0.93979" stroke-miterlimit="10"/>
<path d="M184.63 22.1536H182.456C181.683 22.1536 181.057 21.5173 181.057 20.7439V7.86095C181.057 3.99411 177.914 0.851685 174.047 0.851685H168.438C168.134 0.851685 167.88 1.10621 167.88 1.41947V9.28042C167.88 9.5839 168.134 9.83842 168.438 9.83842H172.745C173.519 9.83842 174.145 10.4649 174.145 11.2383V42.3786C174.145 43.1618 173.519 43.7883 172.745 43.7883H168.438C168.134 43.7883 167.88 44.0331 167.88 44.3463V52.2073C167.88 52.5205 168.134 52.7653 168.438 52.7653H174.047C177.914 52.7653 181.057 49.6326 181.057 45.756V32.8828C181.057 32.1095 181.683 31.4829 182.456 31.4829H184.63C184.933 31.4829 185.188 31.2284 185.188 30.9249V22.7116C185.188 22.3983 184.933 22.1536 184.63 22.1536Z" fill="#F9AB00" stroke="#1E1E1E" stroke-width="0.93979" stroke-miterlimit="10"/>
<path fill-rule="evenodd" clip-rule="evenodd" d="M46.5098 7.05821C47.5801 8.99653 48.1152 11.2416 48.1152 13.7934C48.1152 16.3452 47.5801 18.5967 46.5098 20.5481C45.4394 22.4995 43.909 24.0168 41.9185 25.1002C39.928 26.1836 37.5622 26.7253 34.8211 26.7253H26.0693V0.851685H34.8211C37.5622 0.851685 39.928 1.3999 41.9185 2.49632C43.909 3.59274 45.4394 5.11337 46.5098 7.05821ZM43.2009 13.7934C43.2009 12.1096 42.8811 10.6444 42.2415 9.39789C41.602 8.1579 40.6459 7.19526 39.3732 6.51C38.0941 5.82474 36.5049 5.48211 34.6058 5.48211H30.9543V22.1046H34.6058C36.5049 22.1046 38.0941 21.762 39.3732 21.0767C40.6459 20.3915 41.602 19.4223 42.2415 18.1693C42.8811 16.9162 43.2009 15.4576 43.2009 13.7934Z" fill="#1E1E1E"/>
<path fill-rule="evenodd" clip-rule="evenodd" d="M67.988 12.3641C68.6863 13.7738 69.0355 15.3336 69.0355 17.0435C69.0355 17.4285 69.0257 17.7614 69.0061 18.042C68.98 18.3161 68.9539 18.5151 68.9278 18.6391H55.1051C55.216 19.3309 55.4151 19.9509 55.7022 20.4991C56.1591 21.3541 56.7791 22.0035 57.5622 22.4472C58.3454 22.891 59.2199 23.1129 60.1858 23.1129C61.3148 23.1129 62.2677 22.8682 63.0443 22.3787C63.8144 21.8827 64.4148 21.2627 64.8456 20.5187L68.6831 22.3983C67.8151 23.9124 66.6827 25.11 65.2861 25.991C63.883 26.8721 62.16 27.3126 60.1173 27.3126C58.2573 27.3126 56.5996 26.8884 55.1442 26.04C53.6888 25.1981 52.5435 24.0429 51.7081 22.5745C50.8793 21.1061 50.4648 19.4321 50.4648 17.5525C50.4648 15.7904 50.876 14.1654 51.6983 12.6774C52.5141 11.1828 53.6334 9.98198 55.0561 9.07482C56.4788 8.17419 58.1039 7.72388 59.9313 7.72388C61.9087 7.72388 63.573 8.14482 64.9239 8.98672C66.2683 9.82861 67.2897 10.9544 67.988 12.3641ZM64.4834 15.2716C64.4638 14.8669 64.3431 14.446 64.1212 14.0087C63.9058 13.578 63.6056 13.1799 63.2205 12.8144C62.8355 12.4555 62.3721 12.1618 61.8304 11.9334C61.2887 11.7049 60.6687 11.5907 59.9704 11.5907C59.0567 11.5907 58.2181 11.8322 57.4545 12.3151C56.6975 12.7916 56.1036 13.4572 55.6728 14.3122C55.5162 14.6124 55.3889 14.9322 55.2911 15.2716H64.4834Z" fill="#1E1E1E"/>
<path d="M79.5007 20.2936H79.2169L74.5571 8.30145H69.1729L76.9751 26.7252H81.674L89.5545 8.30145H84.2389L79.5007 20.2936Z" fill="#1E1E1E"/>
<path d="M91.8838 26.7253H96.759V16.3974H107.136V11.7669H96.759V5.48211H108.291V0.851685H91.8838V26.7253Z" fill="#1E1E1E"/>
<path fill-rule="evenodd" clip-rule="evenodd" d="M127.244 12.3641C127.942 13.7738 128.291 15.3336 128.291 17.0435C128.291 17.4285 128.278 17.7614 128.252 18.042C128.226 18.3161 128.203 18.5151 128.184 18.6391H114.361C114.465 19.3309 114.664 19.9509 114.958 20.4991C115.415 21.3541 116.035 22.0035 116.818 22.4472C117.601 22.891 118.473 23.1129 119.432 23.1129C120.567 23.1129 121.52 22.8682 122.29 22.3787C123.061 21.8827 123.664 21.2627 124.101 20.5187L127.929 22.3983C127.061 23.9124 125.929 25.11 124.532 25.991C123.136 26.8721 121.413 27.3126 119.363 27.3126C117.51 27.3126 115.852 26.8884 114.39 26.04C112.935 25.1981 111.793 24.0429 110.964 22.5745C110.129 21.1061 109.711 19.4321 109.711 17.5525C109.711 15.7904 110.122 14.1654 110.944 12.6774C111.76 11.1828 112.879 9.98198 114.302 9.07482C115.725 8.17419 117.353 7.72388 119.187 7.72388C121.158 7.72388 122.819 8.14482 124.17 8.98672C125.521 9.82861 126.546 10.9544 127.244 12.3641ZM123.739 15.2716C123.713 14.8669 123.592 14.446 123.377 14.0087C123.162 13.578 122.861 13.1799 122.476 12.8144C122.085 12.4555 121.618 12.1618 121.077 11.9334C120.535 11.7049 119.915 11.5907 119.217 11.5907C118.303 11.5907 117.467 11.8322 116.71 12.3151C115.947 12.7916 115.35 13.4572 114.919 14.3122C114.769 14.6124 114.645 14.9322 114.547 15.2716H123.739Z" fill="#1E1E1E"/>
<path d="M140.489 15.7415L137.787 15.0954C137.108 14.9257 136.527 14.6711 136.044 14.3318C135.568 13.9989 135.33 13.6041 135.33 13.1472C135.33 12.71 135.568 12.3347 136.044 12.0215C136.527 11.7082 137.18 11.5516 138.002 11.5516C138.701 11.5516 139.356 11.6951 139.97 11.9823C140.583 12.276 141.083 12.7818 141.468 13.4997L145.521 11.7376C145.083 10.8174 144.502 10.0636 143.778 9.47619C143.06 8.8823 142.205 8.44177 141.213 8.15461C140.228 7.86746 139.122 7.72388 137.895 7.72388C136.57 7.72388 135.359 7.9523 134.263 8.40914C133.166 8.86598 132.298 9.50556 131.659 10.3279C131.019 11.1437 130.699 12.1063 130.699 13.2158C130.699 14.2012 130.947 15.0758 131.443 15.8394C131.933 16.5964 132.576 17.2197 133.372 17.7091C134.168 18.2051 135.013 18.551 135.907 18.7468L138.071 19.2167C138.58 19.3081 139.073 19.4321 139.549 19.5887C140.032 19.7454 140.437 19.964 140.763 20.2446C141.089 20.5187 141.252 20.8972 141.252 21.3802C141.252 22.0589 140.939 22.5223 140.313 22.7703C139.686 23.0248 138.988 23.1521 138.218 23.1521C137.278 23.1521 136.459 22.9302 135.76 22.4864C135.062 22.0361 134.507 21.3802 134.096 20.5187L129.867 22.3591C130.207 23.2467 130.725 24.0658 131.424 24.8163C132.122 25.5603 133.032 26.1607 134.155 26.6176C135.271 27.0809 136.625 27.3126 138.218 27.3126C139.66 27.3126 140.972 27.0646 142.153 26.5686C143.334 26.0726 144.274 25.3743 144.972 24.4737C145.671 23.5665 146.02 22.5125 146.02 21.3117C146.02 19.9607 145.556 18.8023 144.63 17.8364C143.703 16.877 142.323 16.1787 140.489 15.7415Z" fill="#1E1E1E"/>
<path d="M158.776 22.4081C158.436 22.5191 158.074 22.5746 157.689 22.5746C156.873 22.5746 156.283 22.3625 155.917 21.9382C155.558 21.5206 155.379 20.8647 155.379 19.9706V12.3446H159.892V8.30151H155.379V3.09351H150.641V8.30151H147.43V12.3446H150.641V20.8418C150.641 22.7671 151.182 24.2779 152.266 25.3743C153.356 26.4708 154.85 27.019 156.749 27.019C157.33 27.019 157.891 26.9635 158.433 26.8526C158.975 26.7481 159.51 26.598 160.039 26.4022V21.7816C159.536 22.0949 159.115 22.3037 158.776 22.4081Z" fill="#1E1E1E"/>
<path d="M35.5555 52.7653H150.22C155.496 52.7653 159.774 48.4873 159.774 43.2107C159.774 37.9244 155.496 33.6464 150.22 33.6464H35.5555C30.2692 33.6464 25.9912 37.9244 25.9912 43.2107C25.9912 48.4873 30.2692 52.7653 35.5555 52.7653Z" fill="white" stroke="#1E1E1E" stroke-width="0.93979" stroke-linejoin="round"/>
<path d="M82.5332 39.6312H83.3637V46.7105H82.5332V39.6312ZM84.779 39.6312H85.6194V46.7105H84.779V39.6312ZM89.1399 46.8687C88.6455 46.8687 88.2006 46.7501 87.8051 46.5128C87.4096 46.2755 87.0998 45.9525 86.8757 45.5438C86.6581 45.1351 86.5494 44.6836 86.5494 44.1892C86.5494 43.6949 86.6581 43.2433 86.8757 42.8347C87.0998 42.426 87.4096 42.103 87.8051 41.8657C88.2006 41.6284 88.6455 41.5098 89.1399 41.5098C89.6342 41.5098 90.0792 41.6284 90.4747 41.8657C90.8702 42.103 91.1767 42.426 91.3942 42.8347C91.6183 43.2433 91.7304 43.6949 91.7304 44.1892C91.7304 44.6836 91.6183 45.1351 91.3942 45.5438C91.1767 45.9525 90.8702 46.2755 90.4747 46.5128C90.0792 46.7501 89.6342 46.8687 89.1399 46.8687ZM89.1399 46.1074C89.4497 46.1074 89.7364 46.0316 90.0001 45.88C90.2703 45.7218 90.4846 45.4977 90.6428 45.2076C90.8075 44.9176 90.8899 44.5781 90.8899 44.1892C90.8899 43.8003 90.8075 43.4609 90.6428 43.1708C90.4846 42.8808 90.2703 42.66 90.0001 42.5084C89.7364 42.3502 89.4497 42.2711 89.1399 42.2711C88.8301 42.2711 88.54 42.3502 88.2698 42.5084C87.9995 42.66 87.782 42.8808 87.6172 43.1708C87.459 43.4609 87.3799 43.8003 87.3799 44.1892C87.3799 44.5781 87.459 44.9176 87.6172 45.2076C87.782 45.4977 87.9995 45.7218 88.2698 45.88C88.54 46.0316 88.8301 46.1074 89.1399 46.1074ZM92.6097 41.668H93.4106V42.4787H93.4501C93.549 42.2019 93.7402 41.9745 94.0236 41.7965C94.3071 41.6119 94.6037 41.5196 94.9135 41.5196C95.1442 41.5196 95.3419 41.5526 95.5067 41.6185V42.5282C95.2958 42.4227 95.0585 42.37 94.7948 42.37C94.5509 42.37 94.3268 42.4392 94.1225 42.5776C93.9181 42.716 93.7534 42.9039 93.6281 43.1412C93.5095 43.3719 93.4501 43.6224 93.4501 43.8926V46.7105H92.6097V41.668ZM96.8119 40.7385C96.6471 40.7385 96.5053 40.6792 96.3867 40.5606C96.268 40.4419 96.2087 40.3002 96.2087 40.1354C96.2087 39.9706 96.268 39.8322 96.3867 39.7201C96.5053 39.6015 96.6471 39.5422 96.8119 39.5422C96.9766 39.5422 97.1184 39.6015 97.237 39.7201C97.3557 39.8322 97.415 39.9706 97.415 40.1354C97.415 40.3002 97.3557 40.4419 97.237 40.5606C97.125 40.6792 96.9832 40.7385 96.8119 40.7385ZM96.3966 41.668H97.2271V46.7105H96.3966V41.668ZM98.5479 41.668H99.3488V42.4095H99.3884C99.5268 42.159 99.7476 41.9481 100.051 41.7767C100.354 41.5987 100.677 41.5098 101.02 41.5098C101.626 41.5098 102.088 41.6877 102.404 42.0437C102.727 42.393 102.888 42.8709 102.888 43.4773V46.7105H102.048V43.6059C102.048 43.1379 101.936 42.7984 101.712 42.5875C101.488 42.3765 101.181 42.2711 100.792 42.2711C100.522 42.2711 100.278 42.3469 100.061 42.4985C99.8498 42.6501 99.685 42.8511 99.5663 43.1016C99.4477 43.3455 99.3884 43.6026 99.3884 43.8728V46.7105H98.5479V41.668Z" fill="#1E1E1E"/>
</g>
<defs>
<clipPath id="clip0_634_1238">
<rect width="186" height="53.6463" fill="white"/>
</clipPath>
</defs>
</svg>
