<svg width="10" height="10" viewBox="0 0 10 10" fill="none" xmlns="http://www.w3.org/2000/svg">
<path fill-rule="evenodd" clip-rule="evenodd" d="M9.00468 0H3.43891C3.16932 0 2.99777 0.221427 2.99777 0.490837V0.504833C2.99777 0.779742 3.16332 0.999669 3.43841 0.999669H7.71427C7.93734 0.999669 8.04838 1.27158 7.89083 1.42853L0.144859 9.15697C-0.0482028 9.3494 -0.0482028 9.6628 0.144359 9.85524V9.85573C0.33742 10.0482 0.65002 10.0482 0.842081 9.85524L8.57505 2.1078C8.7326 1.95035 8.99968 2.06182 8.99968 2.28424V6.51034C8.99968 6.78225 9.22525 6.99768 9.49784 6.99768H9.51184C9.78443 6.99768 10 6.78225 10 6.51034V1.00517C10 0.45285 9.55736 0 9.00468 0Z" fill="black"/>
</svg>
